<mxfile host="drawio-plugin" modified="2022-05-24T06:21:27.294Z" agent="5.0 (Macintosh; Intel Mac OS X 10_15_7) AppleWebKit/537.36 (KHTML, like Gecko) Chrome/97.0.4692.45 Safari/537.36" etag="hDo7R0EgKnp5pUADOCx4" version="15.5.4" type="embed"><diagram id="RwHs3k7okTrlKBKqiO1_" name="Page-1"><mxGraphModel dx="591" dy="649" grid="1" gridSize="10" guides="1" tooltips="1" connect="1" arrows="1" fold="1" page="1" pageScale="1" pageWidth="827" pageHeight="1169" math="0" shadow="0"><root><mxCell id="0"/><mxCell id="1" parent="0"/><mxCell id="rzzWd4vhDg8JMWfKJjgx-5" value="" style="shape=cube;whiteSpace=wrap;html=1;boundedLbl=1;backgroundOutline=1;darkOpacity=0.05;darkOpacity2=0.1;direction=south;size=10;" parent="1" vertex="1"><mxGeometry x="60.14" y="175" width="710" height="455" as="geometry"/></mxCell><mxCell id="rzzWd4vhDg8JMWfKJjgx-3" value="" style="shape=cube;whiteSpace=wrap;html=1;boundedLbl=1;backgroundOutline=1;darkOpacity=0.05;darkOpacity2=0.1;direction=south;size=10;fillColor=#dae8fc;strokeColor=#6c8ebf;" parent="1" vertex="1"><mxGeometry x="70.08" y="230" width="200" height="140" as="geometry"/></mxCell><mxCell id="rzzWd4vhDg8JMWfKJjgx-11" value="&amp;lt;&amp;lt;device&amp;gt;&amp;gt;&lt;br&gt;&lt;b&gt;:Computational Server&lt;/b&gt;" style="text;html=1;strokeColor=none;fillColor=none;align=center;verticalAlign=middle;whiteSpace=wrap;rounded=0;" parent="1" vertex="1"><mxGeometry x="354.14" y="189" width="140" height="30" as="geometry"/></mxCell><mxCell id="rzzWd4vhDg8JMWfKJjgx-12" value="&amp;lt;&amp;lt;execution environment&amp;gt;&amp;gt;&lt;br&gt;&lt;b&gt;:Orchestrator&lt;/b&gt;" style="text;html=1;strokeColor=none;fillColor=none;align=center;verticalAlign=middle;whiteSpace=wrap;rounded=0;" parent="1" vertex="1"><mxGeometry x="77.58" y="252.5" width="170" height="30" as="geometry"/></mxCell><mxCell id="rzzWd4vhDg8JMWfKJjgx-21" value="" style="shape=cube;whiteSpace=wrap;html=1;boundedLbl=1;backgroundOutline=1;darkOpacity=0.05;darkOpacity2=0.1;direction=south;size=10;" parent="1" vertex="1"><mxGeometry x="382.58" y="395" width="150" height="220" as="geometry"/></mxCell><mxCell id="rzzWd4vhDg8JMWfKJjgx-22" value="&amp;lt;&amp;lt;schema&amp;gt;&amp;gt;&lt;br&gt;&lt;b&gt;Orchestrator&lt;/b&gt;" style="html=1;dropTarget=0;" parent="1" vertex="1"><mxGeometry x="395.08" y="451" width="115" height="65" as="geometry"/></mxCell><mxCell id="rzzWd4vhDg8JMWfKJjgx-24" value="&amp;lt;&amp;lt;database system&amp;gt;&amp;gt;&lt;br&gt;&lt;b&gt;PostgreSQL&lt;/b&gt;" style="text;html=1;strokeColor=none;fillColor=none;align=center;verticalAlign=middle;whiteSpace=wrap;rounded=0;" parent="1" vertex="1"><mxGeometry x="387.58" y="405" width="130" height="35" as="geometry"/></mxCell><mxCell id="M4qyIZvMjPyauZ3MhEu3-7" value="&amp;lt;&amp;lt;schema&amp;gt;&amp;gt;&lt;br&gt;&lt;b&gt;Storage&lt;/b&gt;" style="html=1;dropTarget=0;" parent="1" vertex="1"><mxGeometry x="395.08" y="532.5" width="115" height="65" as="geometry"/></mxCell><mxCell id="M4qyIZvMjPyauZ3MhEu3-9" value="" style="ellipse;shape=umlEntity;whiteSpace=wrap;html=1;" parent="1" vertex="1"><mxGeometry x="492.58" y="455" width="15" height="15" as="geometry"/></mxCell><mxCell id="Us4ZtO2WU-CV6Y0aD06D-1" value="&amp;lt;&amp;lt;protocol&amp;gt;&amp;gt;&lt;br&gt;&lt;b&gt;HTTPS&lt;/b&gt;" style="text;html=1;strokeColor=none;fillColor=none;align=center;verticalAlign=middle;whiteSpace=wrap;rounded=0;" parent="1" vertex="1"><mxGeometry x="230.14" y="100" width="60" height="20" as="geometry"/></mxCell><mxCell id="ixRUsvrQxaoz0LUdEpp5-3" value="" style="group" parent="1" vertex="1" connectable="0"><mxGeometry x="40.14" y="10" width="170" height="120" as="geometry"/></mxCell><mxCell id="rzzWd4vhDg8JMWfKJjgx-2" value="" style="shape=cube;whiteSpace=wrap;html=1;boundedLbl=1;backgroundOutline=1;darkOpacity=0.05;darkOpacity2=0.1;direction=south;size=10;" parent="ixRUsvrQxaoz0LUdEpp5-3" vertex="1"><mxGeometry width="170" height="120" as="geometry"/></mxCell><mxCell id="rzzWd4vhDg8JMWfKJjgx-6" value="&amp;lt;&amp;lt;device&amp;gt;&amp;gt;&lt;br&gt;&lt;b&gt;:User Device&lt;/b&gt;" style="text;html=1;strokeColor=none;fillColor=none;align=center;verticalAlign=middle;whiteSpace=wrap;rounded=0;" parent="ixRUsvrQxaoz0LUdEpp5-3" vertex="1"><mxGeometry x="42.5" y="20" width="85" height="20" as="geometry"/></mxCell><mxCell id="ixRUsvrQxaoz0LUdEpp5-1" value="" style="shape=module;align=left;spacingLeft=20;align=center;verticalAlign=top;fontStyle=1" parent="ixRUsvrQxaoz0LUdEpp5-3" vertex="1"><mxGeometry x="8" y="50" width="140" height="60" as="geometry"/></mxCell><mxCell id="ixRUsvrQxaoz0LUdEpp5-2" value="Web Client" style="text;align=center;fontStyle=1;verticalAlign=middle;spacingLeft=3;spacingRight=3;strokeColor=none;rotatable=0;points=[[0,0.5],[1,0.5]];portConstraint=eastwest;" parent="ixRUsvrQxaoz0LUdEpp5-3" vertex="1"><mxGeometry x="45" y="67" width="80" height="26" as="geometry"/></mxCell><mxCell id="ixRUsvrQxaoz0LUdEpp5-29" style="edgeStyle=orthogonalEdgeStyle;rounded=1;orthogonalLoop=1;jettySize=auto;html=1;exitX=1;exitY=0.5;exitDx=0;exitDy=0;entryX=0;entryY=0.25;entryDx=0;entryDy=0;endArrow=none;endFill=0;" parent="1" source="ixRUsvrQxaoz0LUdEpp5-5" target="rzzWd4vhDg8JMWfKJjgx-22" edge="1"><mxGeometry relative="1" as="geometry"><Array as="points"><mxPoint x="300.08" y="327"/><mxPoint x="300.08" y="467"/></Array></mxGeometry></mxCell><mxCell id="ixRUsvrQxaoz0LUdEpp5-5" value="" style="shape=module;align=left;spacingLeft=20;align=center;verticalAlign=top;fillColor=#dae8fc;strokeColor=#6c8ebf;" parent="1" vertex="1"><mxGeometry x="82.58" y="298" width="164" height="57.5" as="geometry"/></mxCell><mxCell id="ixRUsvrQxaoz0LUdEpp5-7" value="Web Application" style="text;align=center;fontStyle=1;verticalAlign=middle;spacingLeft=3;spacingRight=3;strokeColor=none;rotatable=0;points=[[0,0.5],[1,0.5]];portConstraint=eastwest;" parent="1" vertex="1"><mxGeometry x="130.57999999999998" y="314.5" width="80" height="26" as="geometry"/></mxCell><mxCell id="ixRUsvrQxaoz0LUdEpp5-8" value="" style="shape=cube;whiteSpace=wrap;html=1;boundedLbl=1;backgroundOutline=1;darkOpacity=0.05;darkOpacity2=0.1;direction=south;size=10;" parent="1" vertex="1"><mxGeometry x="73.08" y="467.5" width="194" height="138" as="geometry"/></mxCell><mxCell id="ixRUsvrQxaoz0LUdEpp5-9" value="&amp;lt;&amp;lt;execution environment&amp;gt;&amp;gt;&lt;br&gt;&lt;b&gt;:Storage&lt;/b&gt;" style="text;html=1;strokeColor=none;fillColor=none;align=center;verticalAlign=middle;whiteSpace=wrap;rounded=0;" parent="1" vertex="1"><mxGeometry x="80.58" y="490" width="170" height="30" as="geometry"/></mxCell><mxCell id="ixRUsvrQxaoz0LUdEpp5-31" style="edgeStyle=orthogonalEdgeStyle;rounded=1;orthogonalLoop=1;jettySize=auto;html=1;exitX=1;exitY=0.5;exitDx=0;exitDy=0;entryX=0;entryY=0.5;entryDx=0;entryDy=0;endArrow=none;endFill=0;" parent="1" source="ixRUsvrQxaoz0LUdEpp5-10" target="M4qyIZvMjPyauZ3MhEu3-7" edge="1"><mxGeometry relative="1" as="geometry"/></mxCell><mxCell id="ixRUsvrQxaoz0LUdEpp5-10" value="" style="shape=module;align=left;spacingLeft=20;align=center;verticalAlign=top;" parent="1" vertex="1"><mxGeometry x="85.58" y="535" width="160" height="60" as="geometry"/></mxCell><mxCell id="ixRUsvrQxaoz0LUdEpp5-11" value="Web Application" style="text;align=center;fontStyle=1;verticalAlign=middle;spacingLeft=3;spacingRight=3;strokeColor=none;rotatable=0;points=[[0,0.5],[1,0.5]];portConstraint=eastwest;" parent="1" vertex="1"><mxGeometry x="133.57999999999998" y="552" width="80" height="26" as="geometry"/></mxCell><mxCell id="ixRUsvrQxaoz0LUdEpp5-12" value="" style="shape=cube;whiteSpace=wrap;html=1;boundedLbl=1;backgroundOutline=1;darkOpacity=0.05;darkOpacity2=0.1;direction=south;size=10;" parent="1" vertex="1"><mxGeometry x="360.08" y="230" width="200" height="140" as="geometry"/></mxCell><mxCell id="ixRUsvrQxaoz0LUdEpp5-13" value="&amp;lt;&amp;lt;execution environment&amp;gt;&amp;gt;&lt;br&gt;&lt;b&gt;:Executor&lt;/b&gt;" style="text;html=1;strokeColor=none;fillColor=none;align=center;verticalAlign=middle;whiteSpace=wrap;rounded=0;" parent="1" vertex="1"><mxGeometry x="367.58" y="252.5" width="170" height="30" as="geometry"/></mxCell><mxCell id="ixRUsvrQxaoz0LUdEpp5-25" style="rounded=0;orthogonalLoop=1;jettySize=auto;html=1;entryX=0;entryY=0.5;entryDx=0;entryDy=0;endArrow=open;endFill=0;dashed=1;exitX=1;exitY=0.25;exitDx=0;exitDy=0;" parent="1" source="ixRUsvrQxaoz0LUdEpp5-14" target="ixRUsvrQxaoz0LUdEpp5-16" edge="1"><mxGeometry relative="1" as="geometry"><mxPoint x="460.08" y="470" as="sourcePoint"/></mxGeometry></mxCell><mxCell id="ixRUsvrQxaoz0LUdEpp5-26" style="edgeStyle=none;rounded=0;orthogonalLoop=1;jettySize=auto;html=1;exitX=1;exitY=0.75;exitDx=0;exitDy=0;entryX=0;entryY=0.5;entryDx=0;entryDy=0;endArrow=none;endFill=0;" parent="1" source="ixRUsvrQxaoz0LUdEpp5-14" target="ixRUsvrQxaoz0LUdEpp5-24" edge="1"><mxGeometry relative="1" as="geometry"/></mxCell><mxCell id="ixRUsvrQxaoz0LUdEpp5-14" value="" style="shape=module;align=left;spacingLeft=20;align=center;verticalAlign=top;" parent="1" vertex="1"><mxGeometry x="372.58" y="297.5" width="160" height="60" as="geometry"/></mxCell><mxCell id="ixRUsvrQxaoz0LUdEpp5-15" value="Web Application" style="text;align=center;fontStyle=1;verticalAlign=middle;spacingLeft=3;spacingRight=3;strokeColor=none;rotatable=0;points=[[0,0.5],[1,0.5]];portConstraint=eastwest;" parent="1" vertex="1"><mxGeometry x="420.58" y="314.5" width="80" height="26" as="geometry"/></mxCell><mxCell id="ixRUsvrQxaoz0LUdEpp5-16" value="&amp;lt;&amp;lt;artifact&amp;gt;&amp;gt;&lt;br&gt;&lt;b&gt;Plan Design Algorithms&lt;/b&gt;" style="html=1;" parent="1" vertex="1"><mxGeometry x="590.08" y="230" width="161" height="75" as="geometry"/></mxCell><mxCell id="ixRUsvrQxaoz0LUdEpp5-19" value="" style="ellipse;shape=umlEntity;whiteSpace=wrap;html=1;" parent="1" vertex="1"><mxGeometry x="492.08" y="535.5" width="15" height="15" as="geometry"/></mxCell><mxCell id="ixRUsvrQxaoz0LUdEpp5-24" value="&amp;lt;&amp;lt;volume&amp;gt;&amp;gt;&lt;br&gt;&lt;b&gt;File Storage&lt;/b&gt;" style="html=1;" parent="1" vertex="1"><mxGeometry x="590.08" y="320" width="161" height="75" as="geometry"/></mxCell><mxCell id="ixRUsvrQxaoz0LUdEpp5-27" style="edgeStyle=orthogonalEdgeStyle;rounded=1;orthogonalLoop=1;jettySize=auto;html=1;exitX=1;exitY=0.25;exitDx=0;exitDy=0;entryX=0;entryY=0;entryDx=0;entryDy=15;entryPerimeter=0;endArrow=none;endFill=0;" parent="1" source="ixRUsvrQxaoz0LUdEpp5-5" target="ixRUsvrQxaoz0LUdEpp5-14" edge="1"><mxGeometry relative="1" as="geometry"/></mxCell><mxCell id="ixRUsvrQxaoz0LUdEpp5-28" value="&amp;lt;&amp;lt;protocol&amp;gt;&amp;gt;&lt;br&gt;&lt;b&gt;HTTP&lt;/b&gt;" style="text;html=1;strokeColor=none;fillColor=none;align=center;verticalAlign=middle;whiteSpace=wrap;rounded=0;" parent="1" vertex="1"><mxGeometry x="280.08" y="285" width="60" height="20" as="geometry"/></mxCell><mxCell id="ixRUsvrQxaoz0LUdEpp5-30" value="&amp;lt;&amp;lt;protocol&amp;gt;&amp;gt;&lt;br&gt;&lt;b&gt;PostgreSQL&lt;/b&gt;" style="text;html=1;strokeColor=none;fillColor=none;align=center;verticalAlign=middle;whiteSpace=wrap;rounded=0;" parent="1" vertex="1"><mxGeometry x="312.58" y="437.5" width="60" height="20" as="geometry"/></mxCell><mxCell id="ixRUsvrQxaoz0LUdEpp5-32" value="&amp;lt;&amp;lt;protocol&amp;gt;&amp;gt;&lt;br&gt;&lt;b&gt;PostgreSQL&lt;/b&gt;" style="text;html=1;strokeColor=none;fillColor=none;align=center;verticalAlign=middle;whiteSpace=wrap;rounded=0;" parent="1" vertex="1"><mxGeometry x="312.58" y="540" width="60" height="20" as="geometry"/></mxCell><mxCell id="ixRUsvrQxaoz0LUdEpp5-33" style="edgeStyle=orthogonalEdgeStyle;rounded=1;orthogonalLoop=1;jettySize=auto;html=1;exitX=1;exitY=0.75;exitDx=0;exitDy=0;entryX=1;entryY=0.25;entryDx=0;entryDy=0;endArrow=none;endFill=0;" parent="1" source="ixRUsvrQxaoz0LUdEpp5-5" target="ixRUsvrQxaoz0LUdEpp5-10" edge="1"><mxGeometry relative="1" as="geometry"><Array as="points"><mxPoint x="280.14" y="341"/><mxPoint x="280.14" y="550"/></Array></mxGeometry></mxCell><mxCell id="ixRUsvrQxaoz0LUdEpp5-35" value="&amp;lt;&amp;lt;protocol&amp;gt;&amp;gt;&lt;br&gt;&lt;b&gt;HTTP&lt;/b&gt;" style="text;html=1;strokeColor=none;fillColor=none;align=center;verticalAlign=middle;whiteSpace=wrap;rounded=0;" parent="1" vertex="1"><mxGeometry x="213.57999999999998" y="417.5" width="60" height="20" as="geometry"/></mxCell><mxCell id="ixRUsvrQxaoz0LUdEpp5-36" style="edgeStyle=orthogonalEdgeStyle;rounded=1;orthogonalLoop=1;jettySize=auto;html=1;exitX=1;exitY=0.25;exitDx=0;exitDy=0;entryX=0;entryY=0;entryDx=0;entryDy=15;entryPerimeter=0;endArrow=none;endFill=0;" parent="1" source="ixRUsvrQxaoz0LUdEpp5-1" target="ixRUsvrQxaoz0LUdEpp5-5" edge="1"><mxGeometry relative="1" as="geometry"><Array as="points"><mxPoint x="330.14" y="75"/><mxPoint x="330.14" y="160"/><mxPoint x="40.14" y="160"/><mxPoint x="40.14" y="313"/></Array></mxGeometry></mxCell><mxCell id="ixRUsvrQxaoz0LUdEpp5-37" style="edgeStyle=orthogonalEdgeStyle;rounded=1;orthogonalLoop=1;jettySize=auto;html=1;exitX=1;exitY=0.5;exitDx=0;exitDy=0;entryX=0;entryY=0;entryDx=0;entryDy=15;entryPerimeter=0;endArrow=none;endFill=0;" parent="1" source="ixRUsvrQxaoz0LUdEpp5-1" target="ixRUsvrQxaoz0LUdEpp5-10" edge="1"><mxGeometry relative="1" as="geometry"><Array as="points"><mxPoint x="310.14" y="90"/><mxPoint x="310.14" y="150"/><mxPoint x="30.14" y="150"/><mxPoint x="30.14" y="550"/></Array></mxGeometry></mxCell><mxCell id="ixRUsvrQxaoz0LUdEpp5-38" value="&amp;lt;&amp;lt;protocol&amp;gt;&amp;gt;&lt;br&gt;&lt;b&gt;HTTPS&lt;/b&gt;" style="text;html=1;strokeColor=none;fillColor=none;align=center;verticalAlign=middle;whiteSpace=wrap;rounded=0;" parent="1" vertex="1"><mxGeometry x="230.14" y="50" width="60" height="20" as="geometry"/></mxCell><mxCell id="2" value="" style="whiteSpace=wrap;html=1;" vertex="1" parent="1"><mxGeometry x="270" y="300" width="120" height="60" as="geometry"/></mxCell></root></mxGraphModel></diagram></mxfile>